<svg xmlns="http://www.w3.org/2000/svg" viewBox="0 0 72 72.05"><defs><style>.cls-1{fill:#ffb229;}.cls-2{fill:#ffddab;}.cls-3{fill:#fff3dc;}.cls-4{fill:#ffd166;}.cls-5{fill:#d82356;}.cls-6{fill:#ef476f;}</style></defs><title>Greeting Card</title><g id="Capa_2" data-name="Capa 2"><g id="Layer_1" data-name="Layer 1"><g id="Greeting_Card" data-name="Greeting Card"><path class="cls-1" d="M68,72.05H4a4,4,0,0,1-4-4V28.65A4,4,0,0,1,2.4,25L36,10.05,69.6,25a4.09,4.09,0,0,1,2.4,3.7v39.4A4,4,0,0,1,68,72.05Z"/><path class="cls-2" d="M64,50.05H8v-42a2,2,0,0,1,2-2H62a2,2,0,0,1,2,2Z"/><path class="cls-3" d="M62,50.05H8v-42a2,2,0,0,1,2-2H60a2,2,0,0,1,2,2Z"/><path class="cls-4" d="M68,72.05H4a4,4,0,0,1-4-4v-38l36,20,36-20v38A4,4,0,0,1,68,72.05Z"/><path class="cls-5" d="M36,22.15a7,7,0,0,0-9.9,9.9l.8.8L31,37l5,5,5-5,3.1-3.1L46,32a7.06,7.06,0,0,0,0-9.9A7.28,7.28,0,0,0,36,22.15Z"/><path class="cls-6" d="M43,33.05l1.9-1.9a7.05,7.05,0,0,0,.5-9.4,6.94,6.94,0,0,0-9.4.5,7,7,0,0,0-9.9,9.9l.8.8,3.1,3.1,1,1,4,4,5-5Z"/><path class="cls-5" d="M49,1.45a4.71,4.71,0,0,0-6.6,0,4.71,4.71,0,0,0,0,6.6l.6.6,2.8,2.8,3.3,3.3,3.3-3.3,2-2,1.3-1.3a4.71,4.71,0,0,0,0-6.6A4.57,4.57,0,0,0,49,1.45Z"/><path class="cls-6" d="M53.3,8.35l1.3-1.3A4.59,4.59,0,0,0,55,1a4.84,4.84,0,0,0-6.1.4,4.71,4.71,0,0,0-6.6,0,4.71,4.71,0,0,0,0,6.6l.6.6,1.8,1.8,1,1,2.3,2.3,3.3-3.3Z"/><path class="cls-5" d="M19.3,12a2.9,2.9,0,0,0-4.1,4.1l.3.3,1.7,1.7,2.1,2.1,2.1-2.1,1.3-1.3.8-.8a2.9,2.9,0,1,0-4.2-4Z"/><path class="cls-6" d="M19.3,12a2.9,2.9,0,0,0-4.1,4.1l.3.3,1.3,1.3,1.5,1.5,2.1-2.1,1.3-1.3.8-.8a2.88,2.88,0,0,0,.4-3.6A3.06,3.06,0,0,0,19.3,12Z"/></g></g></g></svg>